:version 1.10
:name ASF
:units
  mass 1
  length 1
  angle deg
:documentation
  ASF file generated by Kaydara
:root
  axis xyz
  order  tx ty tz rx ry rz
  position 0 0 0
  orientation 0 0 0
:bonedata
  begin
    id 1
    name RightUpLegDummy
    direction -0.718183 -0.695806 0.00816078
    length 4.904
    axis 0 0 0 xyz
  end
  begin
    id 2
    name RightUpLeg
    direction -0.0736652 -0.994202 0.0783343
    length 17.4976
    axis -2.72909 -3.00389 -4.00133 xyz
    dof rx ry rz
  end
  begin
    id 3
    name RightLeg
    direction -0.0389037 -0.994596 -0.0962598
    length 16.5821
    axis 3.95836 -18.5909 -4.46993 xyz
    dof rx ry rz
  end
  begin
    id 4
    name RightFoot
    direction -0.311643 -0.412678 0.855906
    length 3.77069
    axis -1.99483 -18.8351 -3.27644 xyz
    dof rx ry rz
  end
  begin
    id 5
    name RightToes
    direction -0.317852 0.0389852 0.947339
    length 3.85082
    axis -2.00228 -18.1713 -3.25211 xyz
    dof rx ry rz
  end
  begin
    id 6
    name SpineDummy
    direction 8.3039e-015 1 4.44677e-016
    length 4.6813
    axis 0 0 0 xyz
  end
  begin
    id 7
    name Spine
    direction -0.000262373 0.999988 0.00493267
    length 10.1015
    axis -0.00246081 0.00062579 0.0150362 xyz
    dof rx ry rz
  end
  begin
    id 8
    name Spine1
    direction 0 0 0
    length 0
    axis -0.00349562 0.000650293 0.0196666 xyz
    dof rx ry rz
  end
  begin
    id 9
    name HEadDummy
    direction -0.000343232 0.999999 0.00123745
    length 3.43865
    axis -0.00349562 0.000650293 0.0196666 xyz
  end
  begin
    id 10
    name HEad
    direction -0.0461221 0.980933 0.188796
    length 5.12695
    axis -0.00351404 -7.04812 0.0199272 xyz
    dof rx ry rz
  end
  begin
    id 11
    name LeftShoulder1Dummy
    direction 0.998904 -0.0399089 -0.0244534
    length 3.5433
    axis -0.00349562 0.000650293 0.0196666 xyz
  end
  begin
    id 12
    name LeftShoulder1
    direction 0.99951 1.64443e-005 0.0312999
    length 4.05031
    axis -0.00349562 0.000650293 0.0196666 xyz
    dof rx ry rz
  end
  begin
    id 13
    name LeftArm
    direction 0.984791 0.0515299 0.165927
    length 12.9126
    axis -64.823 -10.7743 5.20463 xyz
    dof rx ry rz
  end
  begin
    id 14
    name LeftForeArm
    direction 0.984968 0.0534808 0.16425
    length 10.8596
    axis -30.0462 -7.70601 1.87451 xyz
    dof rx ry rz
  end
  begin
    id 15
    name LeftHand
    direction 0.975871 0.0289682 0.216418
    length 6.62295
    axis -20.1348 -6.98077 1.86072 xyz
    dof rx ry rz
  end
  begin
    id 16
    name RightShoulderDummy
    direction -0.998877 -0.0405946 -0.0244307
    length 3.5433
    axis -0.00349562 0.000650293 0.0196666 xyz
  end
  begin
    id 17
    name RightShoulder
    direction -0.998933 -0.0249743 -0.0388558
    length 4.05031
    axis -0.0205316 -4.02113 1.41395 xyz
    dof rx ry rz
  end
  begin
    id 18
    name RightArm
    direction -0.997559 0.068664 0.0127103
    length 12.9638
    axis -67.3882 1.84188 -6.15987 xyz
    dof rx ry rz
  end
  begin
    id 19
    name RightForeArm
    direction -0.991508 0.0912848 0.0926241
    length 10.8312
    axis -22.1975 3.41087 -4.28711 xyz
    dof rx ry rz
  end
  begin
    id 20
    name RightHand
    direction -0.989262 0.0600788 0.133232
    length 6.57864
    axis -12.2911 2.17515 -4.39675 xyz
    dof rx ry rz
  end
  begin
    id 21
    name LeftUpLegDummy
    direction 0.718183 -0.695806 0.00816078
    length 4.904
    axis 0 0 0 xyz
  end
  begin
    id 22
    name LeftUpLeg
    direction 0.0831398 -0.99469 0.0606531
    length 17.4976
    axis -1.71016 2.29552 4.63832 xyz
    dof rx ry rz
  end
  begin
    id 23
    name LeftLeg
    direction 0.0498442 -0.991778 -0.117862
    length 16.5821
    axis 5.13757 15.5727 5.13348 xyz
    dof rx ry rz
  end
  begin
    id 24
    name LeftFoot
    direction 0.269026 -0.433896 0.85986
    length 3.77069
    axis -0.576502 15.6961 4.10267 xyz
    dof rx ry rz
  end
  begin
    id 25
    name LeftToes
    direction 0.277311 0.0251143 0.960452
    length 3.85048
    axis -0.576502 15.6961 4.10267 xyz
    dof rx ry rz
  end
:hierarchy
  begin
    root RightUpLegDummy SpineDummy LeftUpLegDummy
    RightUpLegDummy RightUpLeg
    RightUpLeg RightLeg
    RightLeg RightFoot
    RightFoot RightToes
    SpineDummy Spine
    Spine Spine1
    Spine1 HEadDummy LeftShoulder1Dummy RightShoulderDummy
    HEadDummy HEad
    LeftShoulder1Dummy LeftShoulder1
    LeftShoulder1 LeftArm
    LeftArm LeftForeArm
    LeftForeArm LeftHand
    RightShoulderDummy RightShoulder
    RightShoulder RightArm
    RightArm RightForeArm
    RightForeArm RightHand
    LeftUpLegDummy LeftUpLeg
    LeftUpLeg LeftLeg
    LeftLeg LeftFoot
    LeftFoot LeftToes
  end

:SAMPLES-PER-SECOND 30
:FULLY-SPECIFIED
:DEGREES
92
root  -5.54521 39.6722 35.9675 -1.05958 -5.99867 -0.163998
RightUpLeg  -17.7356 -9.71363 2.24069
RightLeg  19.2273 6.78267 -4.5166
RightFoot  -5.27442 0.165759 -2.22847
RightToes  -5.82073e-011 -3.18055e-015 -2.98177e-016
Spine  12.214 0.0581897 -5.87604
Spine1  1.07079 -0.824823 2.2745
HEad  -15.482 -7.21882 8.98433
LeftShoulder1  -3.88251e-019 9.70628e-020 -3.87848e-018
LeftArm  -20.2122 66.5869 -57.15
LeftForeArm  -3.24945 -6.64178 -2.03175
LeftHand  -0.602551 -1.46816 11.0407
RightShoulder  7.65517 10.5705 36.0825
RightArm  18.5986 -53.4057 8.86451
RightForeArm  6.62719 23.5942 -12.9614
RightHand  -1.62158 5.52814 -17.066
LeftUpLeg  -8.32844 -0.917948 -5.31425
LeftLeg  16.5271 10.0288 8.37798
LeftFoot  -8.37123 -0.0231657 0.0149381
LeftToes  5.79026e-011 9.70705e-012 -3.73859e-011
93
root  -5.55192 39.7246 35.8395 -1.00743 -5.80351 0.0968872
RightUpLeg  -16.1829 -9.69763 1.43676
RightLeg  18.7563 7.67064 -4.08156
RightFoot  -5.52239 0.128395 -1.73405
RightToes  -5.82073e-011 -3.18055e-015 -2.98177e-016
Spine  11.9366 0.0102724 -6.09344
Spine1  0.99489 -0.853358 2.07577
HEad  -15.4663 -7.22841 9.32293
LeftShoulder1  -3.88251e-019 9.70628e-020 -3.87848e-018
LeftArm  -19.1483 67.7545 -51.8033
LeftForeArm  4.83879 -1.15139 -0.243818
LeftHand  -0.620781 -1.42635 11.3623
RightShoulder  7.66037 10.5703 36.109
RightArm  16.6906 -55.5171 4.96523
RightForeArm  7.55047 20.1709 -10.8694
RightHand  -1.37789 4.56233 -15.9174
LeftUpLeg  -8.13646 -1.57528 -5.55218
LeftLeg  15.6056 10.6412 8.04395
LeftFoot  -7.88572 -0.013653 -0.165484
LeftToes  5.79026e-011 9.70705e-012 -3.73859e-011
94
root  -5.56394 39.7509 35.7111 -0.711897 -5.94557 0.399812
RightUpLeg  -14.8623 -9.37798 0.754135
RightLeg  17.8649 7.60438 -3.95851
RightFoot  -4.89705 0.109247 -1.37822
RightToes  -5.82073e-011 -3.18055e-015 -2.98177e-016
Spine  11.1424 0.197154 -5.89115
Spine1  1.3882 -0.523759 1.5932
HEad  -15.7595 -7.47633 9.45318
LeftShoulder1  -3.88251e-019 9.70628e-020 -3.87848e-018
LeftArm  -17.1367 68.4438 -46.8405
LeftForeArm  10.103 0.375533 1.62638
LeftHand  -0.645642 -0.792291 13.1211
RightShoulder  7.63893 10.56 36.0245
RightArm  11.8597 -56.6437 2.46441
RightForeArm  11.015 15.0758 -8.36307
RightHand  -1.13228 3.58253 -14.4798
LeftUpLeg  -8.35868 -1.70282 -5.79583
LeftLeg  15.1101 10.998 7.83165
LeftFoot  -7.87046 0.0148427 -0.798366
LeftToes  5.79026e-011 9.70705e-012 -3.73859e-011
95
root  -5.58946 39.7548 35.599 -0.305666 -6.47555 0.608278
RightUpLeg  -13.7148 -9.01624 0.298649
RightLeg  16.7728 7.40375 -3.74606
RightFoot  -4.34393 0.0153179 -0.0966317
RightToes  -5.82073e-011 -3.18055e-015 -2.98177e-016
Spine  10.2068 0.557187 -5.34528
Spine1  1.92288 0.0319836 1.05502
HEad  -16.5158 -7.46873 9.20332
LeftShoulder1  -3.88251e-019 9.70628e-020 -3.87848e-018
LeftArm  -13.8467 69.3765 -42.1379
LeftForeArm  10.5294 0.375707 2.31987
LeftHand  -0.493456 0.834962 13.7732
RightShoulder  7.62615 10.5539 35.9738
RightArm  8.64552 -56.9583 1.37063
RightForeArm  12.8941 8.7752 -7.76062
RightHand  -0.754889 2.12112 -11.4419
LeftUpLeg  -8.83957 -1.39283 -5.90432
LeftLeg  15.0107 11.2091 7.78217
LeftFoot  -8.20407 0.0465377 -1.60802
LeftToes  5.79026e-011 9.70705e-012 -3.73859e-011
96
root  -5.62777 39.7852 35.5007 -0.00993304 -7.16288 0.674648
RightUpLeg  -12.3858 -8.35101 -0.120881
RightLeg  15.0494 7.12966 -2.9319
RightFoot  -4.32497 -0.136611 1.85027
RightToes  -5.82073e-011 -3.18055e-015 -2.98177e-016
Spine  9.75946 0.900472 -4.47166
Spine1  2.10497 0.558433 0.616902
HEad  -17.5263 -6.9308 8.79234
LeftShoulder1  -3.88251e-019 9.70628e-020 -3.87848e-018
LeftArm  -9.28167 70.5707 -37.1973
LeftForeArm  7.85692 0.324387 1.76163
LeftHand  -0.340839 1.8694 12.6634
RightShoulder  7.64966 10.5696 36.0568
RightArm  7.07252 -56.9633 0.371824
RightForeArm  15.3285 3.86541 -8.13824
RightHand  -0.37776 0.469124 -7.31582
LeftUpLeg  -9.04815 -1.15624 -5.88496
LeftLeg  14.6562 11.7035 7.7526
LeftFoot  -8.34346 0.062065 -2.0375
LeftToes  5.79026e-011 9.70705e-012 -3.73859e-011
97
root  -5.67693 39.8589 35.3945 0.196665 -7.77863 0.499937
RightUpLeg  -11.0253 -6.1891 -0.525254
RightLeg  12.6762 5.49999 -1.62757
RightFoot  -4.22216 -0.234977 3.06891
RightToes  -5.82073e-011 -3.18055e-015 -2.98177e-016
Spine  9.67312 1.1471 -3.23609
Spine1  2.11852 0.952659 0.432955
HEad  -18.5558 -6.13962 8.46661
LeftShoulder1  -3.88251e-019 9.70628e-020 -3.87848e-018
LeftArm  -5.0829 71.4789 -33.3433
LeftForeArm  3.50825 -0.320723 0.747701
LeftHand  -0.375148 1.17735 11.4695
RightShoulder  7.6948 10.5981 36.2195
RightArm  7.22257 -57.0504 -1.20073
RightForeArm  18.835 2.0465 -8.53883
RightHand  -0.190699 -0.252609 -4.2172
LeftUpLeg  -8.9811 -1.10766 -5.62375
LeftLeg  13.9436 12.3892 7.64584
LeftFoot  -8.17566 0.066464 -2.06096
LeftToes  5.79026e-011 9.70705e-012 -3.73859e-011
